<?xml version="1.0" encoding="utf-8"?>
<!-- Generator: Adobe Illustrator 28.0.0, SVG Export Plug-In . SVG Version: 6.00 Build 0)  -->
<svg version="1.1" id="图层_1" xmlns="http://www.w3.org/2000/svg" xmlns:xlink="http://www.w3.org/1999/xlink" x="0px" y="0px"
	 viewBox="0 0 155.9 155.9" style="enable-background:new 0 0 155.9 155.9;" xml:space="preserve">
<style type="text/css">
	.st0{fill:#01D8FE;}
	.st1{fill:#A553FE;}
	.st2{fill:#A453FE;}
	.st3{fill:#0CD0FE;}
	.st4{fill:#46ABFE;}
	.st5{fill:#53A2FE;}
	.st6{fill:#1FC4FE;}
	.st7{fill:#559FFE;}
	.st8{fill:#16C9FE;}
	.st9{fill:#6495FD;}
	.st10{fill:#42ADFE;}
	.st11{fill:#9566FD;}
	.st12{fill:#2FB9FE;}
	.st13{fill:#6594FD;}
	.st14{fill:#7686FD;}
	.st15{fill:#9669FD;}
	.st16{fill:#8579FD;}
	.st17{fill:#837DFD;}
</style>
<g>
	<path class="st0" d="M19.5,88.7c-4.3-2.6-6.8-8.2-5.9-12.8c1.1-5.1,5.2-9,10.5-9.7c3.8-0.5,7.6-0.3,10.9-3c3.2-2.6,5.1-5.8,5.5-9.9
		c0.5-5.5,3.4-10.5,10.7-11.4c8.1-1,13.4-5.8,14.9-12.7c0.4-1.7,0.2-3.5,0.3-5.2c0.3-5.2,3.4-9.5,8.3-11.1c4.5-1.6,11.1-0.1,14,3.5
		c3.4,4.2,3.9,9,1.5,13.8c-2.3,4.8-6.7,6.2-11.5,6.5c-8.7,0.6-14.1,5-16.3,13.2c-0.2,0.9-0.3,1.8-0.3,2.7c-0.1,5.7-3.5,10.1-9,10.8
		c-7.8,1-12.5,5.2-14.4,12.7c-0.4,0.5-0.3,1.1-0.2,1.7c0.5,3.2-1.5,5.1-3.8,6.7c-2.8,1.9-6,3.1-9.1,4.4C23.3,89.9,21.5,89,19.5,88.7
		z"/>
	<path class="st1" d="M77,119.7c8.1-0.3,14.2,4.5,14.5,11.4c0.2,5.3-2,9.1-6.8,11.4c-4.3,2.1-10.7,1.2-14.3-2
		c-2.4-2.2-4.1-4.8-4-8.2c-0.5-1.3-0.1-2.4,0.6-3.5c1.6-2.7,3.9-4.7,6.4-6.4C74.7,121.5,75.9,120.7,77,119.7z"/>
	<path class="st1" d="M103,94.2c8.9-0.9,13.3,7.1,11.7,13.6c-1.2,4.8-4.7,7.5-9.8,7.5c-5.6,0.1-9.9-2.8-11.4-7.5
		c-0.9-2.9-0.6-5.7,0-8.6c1.9-1.6,4.3-2.7,6.1-4.5C100.4,93.9,101.8,93.7,103,94.2z"/>
	<path class="st2" d="M142.4,77.8c0,5.9-4.7,10.4-10.8,10.4c-6,0-11.1-5-11.1-10.8c0-5.7,5.2-10.6,11.1-10.6
		C137.7,66.8,142.5,71.7,142.4,77.8z"/>
	<path class="st3" d="M93.4,51.1c0.7-5.1,5-8.7,10.7-8.9c5.6-0.2,9.9,3.2,11,8.5c-0.8,2.2-2.5,3.6-4.6,4.2
		c-3.6,1.1-7.3,2.2-11.1,2.5C94.3,57.9,92.8,56.2,93.4,51.1z"/>
	<path class="st4" d="M68.6,79.7c-0.5-6,1.7-9.8,6.6-11.4c5-1.6,10.1,0.1,12.8,4.5c0.2,0.7-0.2,1.1-0.8,1.4
		c-3.1,1.7-6.2,3.7-9.8,4.2c-1.4,0.2-2.5,0.8-3.7,1.5C72,80.9,70.3,81.1,68.6,79.7z"/>
	<path class="st5" d="M45.9,114.4c-4.8-2.4-5.7-6.9-5.9-11.7c0.5-0.2,0.7,0.2,1,0.5c1.4,1.7,3.1,1.8,4.8,0.6
		c3.5-2.6,7.4-4.7,9.7-8.6c2.6,0.9,4.2,2.8,5.1,5.4c0.2,1.4-0.8,2.1-1.7,2.7C54.2,106.6,49.7,110.1,45.9,114.4z"/>
	<path class="st6" d="M93.4,51.1c0.3,1.4-0.2,2.9,0.9,4.3c2,2.7,4.6,1.4,6.8,1.1c2.8-0.3,5.6-1.3,8.4-1.9c2.4-0.5,3.7-2.7,5.6-4
		c1.1,4.3-0.1,7.9-3.6,10.6c-4,3.1-8.5,3.3-12.9,1c-3.7-1.9-5.6-5.2-5.7-9.5C92.9,52.2,93,51.6,93.4,51.1z"/>
	<path class="st7" d="M68.6,79.7c2.3,0.6,4.4,0.3,6.2-1.3c0.5-0.5,1.3-0.6,2.1-0.7C81,77.2,84.5,75,88,72.8c1.6,2.1,2.2,4.4,1.6,7
		c-0.4,0.5-0.9,1-1.6,1.1c-2.8,0.6-5.1,2.3-7.7,3.4c-2.2,1-4.5,2.1-7,2C70.5,85,69.3,82.5,68.6,79.7z"/>
	<path class="st8" d="M19.5,88.7c0.2-0.1,0.5-0.3,0.7-0.3c7,0.6,12.2-2.8,16.9-7.4c1.5-1.5,0-3.5,1.3-4.8c-0.4,4.6,0.9,8.8,3.5,12.6
		c-0.5,2.7-2.7,3.3-4.9,3.9c-1.2,0.3-2.5,0.3-3.7,0c-2.5-1.3-5.3-1.7-8.1-2.1C23.2,90.5,21.3,89.9,19.5,88.7z"/>
	<path class="st9" d="M45.9,114.4c0-1,0.8-1.6,1.3-2.3c2.9-3.7,7-6.1,10.7-8.9c1-0.8,1.9-1.5,2.6-2.6c1.5,2.1,1.4,4.6,1.4,7.1
		c0.4,0.5,0.2,1-0.2,1.3c-2.7,2.1-5.3,4.4-7.8,6.8c-0.4,0.4-0.9,0.7-1.5,0.5C50.2,116,47.9,115.8,45.9,114.4z"/>
	<path class="st10" d="M55.5,95.2c0,1.9-1.1,3-2.5,4.1c-2.5,1.8-4.7,4-7.4,5.4c-2.6,1.4-4.4,0.7-5.6-1.9c-0.5-1.5-1.1-3-1.6-4.5
		c0.2-0.2,0.4-0.4,0.6-0.3c3.9,0.3,6.6-1.4,7.9-5.1C49.8,93.6,52.8,93.8,55.5,95.2z"/>
	<path class="st11" d="M77,119.7c-0.2,1.4-1.2,2.1-2.3,2.7c-3.3,1.8-5.7,4.4-7.7,7.5c-0.5,0.8-0.5,1.6-0.5,2.4
		c-0.6-3.3-1.9-6.4-3.5-9.4c0-0.1-0.1-0.2-0.1-0.2c0.3-1.8,4.2-4.9,6.1-4.9C71.5,119,74.3,119.2,77,119.7z"/>
	<path class="st12" d="M47,92.8c-0.1,4.1-3.9,6.5-8.6,5.5c-1.4-2-3-4-5-5.5c2-1.1,4.6,0,6.5-1.9c0.7-0.7,1.6-1.2,2.1-2
		C43.8,89.9,44.9,91.9,47,92.8z"/>
	<path class="st13" d="M73.3,86.3c5.6-1.7,10.5-5.1,16.2-6.6c0.2,2-1.2,3.6-1.6,5.5c0.4,2.4-1.2,2.9-3,3c-1.1-0.6-2.2-0.6-3.4-0.3
		C78.6,88.6,75.9,88,73.3,86.3z"/>
	<path class="st14" d="M52.4,116.2c3.2-2.8,6.4-5.7,9.6-8.5c0.7,1.8,1,3.7,2,5.4c0.6,1,0,1.8-0.7,2.3c-1.6,1.1-3,2.5-4.8,3.3
		C56.5,117.9,54.5,117.1,52.4,116.2z"/>
	<path class="st15" d="M103,94.2c-1.7-0.1-3,0.6-4.1,1.8c-1.5,1.7-3.4,2.6-5.5,3.2c-0.3-2.6-2.1-4.4-3.5-6.5c0.1-2,0.8-2.6,3-2.5
		C95.9,92.7,99.4,93.6,103,94.2z"/>
	<path class="st16" d="M58.5,118.7c0.8-1.3,1.9-2.2,3.2-2.9c1.1-0.6,2.1-1.3,2.3-2.7c1.4,1.8,3,3.3,4.9,4.6c-2.4,1.3-4.2,3.2-6,5.1
		C61.4,121.5,60,120.1,58.5,118.7z"/>
	<path class="st17" d="M92.9,90.2c-1.3,0.4-2.4,1.1-3,2.5c-1.7-1.5-3.3-3-5-4.5c1.1-0.9,2.8-1.2,3-3C89.6,86.9,91.3,88.6,92.9,90.2z
		"/>
</g>
</svg>
